<mxfile host="app.diagrams.net" agent="Mozilla/5.0 (Windows NT 10.0; Win64; x64) AppleWebKit/537.36 (KHTML, like Gecko) Chrome/128.0.0.0 Safari/537.36" version="24.7.10">
  <diagram id="C5RBs43oDa-KdzZeNtuy" name="Page-1">
    <mxGraphModel dx="971" dy="511" grid="1" gridSize="10" guides="1" tooltips="1" connect="1" arrows="1" fold="1" page="1" pageScale="1" pageWidth="827" pageHeight="1169" math="0" shadow="0">
      <root>
        <mxCell id="WIyWlLk6GJQsqaUBKTNV-0" />
        <mxCell id="WIyWlLk6GJQsqaUBKTNV-1" parent="WIyWlLk6GJQsqaUBKTNV-0" />
        <mxCell id="WIyWlLk6GJQsqaUBKTNV-4" value="Yes" style="rounded=0;html=1;jettySize=auto;orthogonalLoop=1;fontSize=11;endArrow=block;endFill=0;endSize=8;strokeWidth=1;shadow=0;labelBackgroundColor=none;edgeStyle=orthogonalEdgeStyle;exitX=0.5;exitY=1;exitDx=0;exitDy=0;exitPerimeter=0;entryX=0.5;entryY=0;entryDx=0;entryDy=0;" parent="WIyWlLk6GJQsqaUBKTNV-1" source="9KyVt1tDY5ZcNBMKhhcq-9" target="9KyVt1tDY5ZcNBMKhhcq-12" edge="1">
          <mxGeometry y="20" relative="1" as="geometry">
            <mxPoint as="offset" />
            <mxPoint x="238" y="391" as="sourcePoint" />
            <mxPoint x="235" y="420" as="targetPoint" />
          </mxGeometry>
        </mxCell>
        <mxCell id="WIyWlLk6GJQsqaUBKTNV-9" value="No" style="edgeStyle=orthogonalEdgeStyle;rounded=0;html=1;jettySize=auto;orthogonalLoop=1;fontSize=11;endArrow=block;endFill=0;endSize=8;strokeWidth=1;shadow=0;labelBackgroundColor=none;exitX=1;exitY=0.5;exitDx=0;exitDy=0;exitPerimeter=0;entryX=1;entryY=0.5;entryDx=0;entryDy=0;" parent="WIyWlLk6GJQsqaUBKTNV-1" source="9KyVt1tDY5ZcNBMKhhcq-9" target="WIyWlLk6GJQsqaUBKTNV-11" edge="1">
          <mxGeometry x="-0.2571" y="10" relative="1" as="geometry">
            <mxPoint as="offset" />
            <mxPoint x="306" y="320" as="sourcePoint" />
            <mxPoint x="356" y="320" as="targetPoint" />
            <Array as="points">
              <mxPoint x="350" y="320" />
              <mxPoint x="350" y="220" />
            </Array>
          </mxGeometry>
        </mxCell>
        <mxCell id="9KyVt1tDY5ZcNBMKhhcq-10" value="" style="edgeStyle=orthogonalEdgeStyle;rounded=0;orthogonalLoop=1;jettySize=auto;html=1;" edge="1" parent="WIyWlLk6GJQsqaUBKTNV-1" source="WIyWlLk6GJQsqaUBKTNV-11" target="9KyVt1tDY5ZcNBMKhhcq-9">
          <mxGeometry relative="1" as="geometry" />
        </mxCell>
        <mxCell id="WIyWlLk6GJQsqaUBKTNV-11" value="Login" style="rounded=1;whiteSpace=wrap;html=1;fontSize=12;glass=0;strokeWidth=1;shadow=0;" parent="WIyWlLk6GJQsqaUBKTNV-1" vertex="1">
          <mxGeometry x="172.5" y="200" width="125" height="40" as="geometry" />
        </mxCell>
        <mxCell id="9KyVt1tDY5ZcNBMKhhcq-7" value="" style="edgeStyle=orthogonalEdgeStyle;rounded=0;orthogonalLoop=1;jettySize=auto;html=1;" edge="1" parent="WIyWlLk6GJQsqaUBKTNV-1" source="9KyVt1tDY5ZcNBMKhhcq-2" target="9KyVt1tDY5ZcNBMKhhcq-6">
          <mxGeometry relative="1" as="geometry" />
        </mxCell>
        <mxCell id="9KyVt1tDY5ZcNBMKhhcq-2" value="Mulai" style="strokeWidth=1;html=1;shape=mxgraph.flowchart.terminator;whiteSpace=wrap;strokeColor=default;fillColor=default;" vertex="1" parent="WIyWlLk6GJQsqaUBKTNV-1">
          <mxGeometry x="170" y="40" width="130" height="38" as="geometry" />
        </mxCell>
        <mxCell id="9KyVt1tDY5ZcNBMKhhcq-8" value="" style="edgeStyle=orthogonalEdgeStyle;rounded=0;orthogonalLoop=1;jettySize=auto;html=1;" edge="1" parent="WIyWlLk6GJQsqaUBKTNV-1" source="9KyVt1tDY5ZcNBMKhhcq-6" target="WIyWlLk6GJQsqaUBKTNV-11">
          <mxGeometry relative="1" as="geometry" />
        </mxCell>
        <mxCell id="9KyVt1tDY5ZcNBMKhhcq-6" value="Input Email &amp;amp;&lt;div&gt;Password&lt;/div&gt;" style="shape=parallelogram;html=1;strokeWidth=1;perimeter=parallelogramPerimeter;whiteSpace=wrap;rounded=1;arcSize=12;size=0.23;" vertex="1" parent="WIyWlLk6GJQsqaUBKTNV-1">
          <mxGeometry x="160" y="119" width="150" height="40" as="geometry" />
        </mxCell>
        <mxCell id="9KyVt1tDY5ZcNBMKhhcq-9" value="?" style="strokeWidth=1;html=1;shape=mxgraph.flowchart.decision;whiteSpace=wrap;" vertex="1" parent="WIyWlLk6GJQsqaUBKTNV-1">
          <mxGeometry x="187.5" y="280" width="95" height="80" as="geometry" />
        </mxCell>
        <mxCell id="9KyVt1tDY5ZcNBMKhhcq-18" value="" style="edgeStyle=orthogonalEdgeStyle;rounded=0;orthogonalLoop=1;jettySize=auto;html=1;" edge="1" parent="WIyWlLk6GJQsqaUBKTNV-1" source="9KyVt1tDY5ZcNBMKhhcq-12" target="9KyVt1tDY5ZcNBMKhhcq-17">
          <mxGeometry relative="1" as="geometry" />
        </mxCell>
        <mxCell id="9KyVt1tDY5ZcNBMKhhcq-12" value="Cari Siswa" style="shape=parallelogram;html=1;strokeWidth=1;perimeter=parallelogramPerimeter;whiteSpace=wrap;rounded=1;arcSize=12;size=0.23;" vertex="1" parent="WIyWlLk6GJQsqaUBKTNV-1">
          <mxGeometry x="160" y="430" width="150" height="40" as="geometry" />
        </mxCell>
        <mxCell id="9KyVt1tDY5ZcNBMKhhcq-20" value="" style="edgeStyle=orthogonalEdgeStyle;rounded=0;orthogonalLoop=1;jettySize=auto;html=1;" edge="1" parent="WIyWlLk6GJQsqaUBKTNV-1" source="9KyVt1tDY5ZcNBMKhhcq-17" target="9KyVt1tDY5ZcNBMKhhcq-19">
          <mxGeometry relative="1" as="geometry" />
        </mxCell>
        <mxCell id="9KyVt1tDY5ZcNBMKhhcq-17" value="Menampilkan Data&lt;div&gt;Siswa&lt;/div&gt;" style="shape=parallelogram;html=1;strokeWidth=1;perimeter=parallelogramPerimeter;whiteSpace=wrap;rounded=1;arcSize=12;size=0.23;" vertex="1" parent="WIyWlLk6GJQsqaUBKTNV-1">
          <mxGeometry x="418" y="430" width="150" height="40" as="geometry" />
        </mxCell>
        <mxCell id="9KyVt1tDY5ZcNBMKhhcq-19" value="Melakukan&amp;nbsp;&lt;div&gt;Kesalahan?&lt;/div&gt;" style="strokeWidth=1;html=1;shape=mxgraph.flowchart.decision;whiteSpace=wrap;" vertex="1" parent="WIyWlLk6GJQsqaUBKTNV-1">
          <mxGeometry x="445" y="280" width="95" height="80" as="geometry" />
        </mxCell>
        <mxCell id="9KyVt1tDY5ZcNBMKhhcq-22" value="No" style="rounded=0;html=1;jettySize=auto;orthogonalLoop=1;fontSize=11;endArrow=block;endFill=0;endSize=8;strokeWidth=1;shadow=0;labelBackgroundColor=none;edgeStyle=orthogonalEdgeStyle;exitX=0.5;exitY=0;exitDx=0;exitDy=0;exitPerimeter=0;" edge="1" parent="WIyWlLk6GJQsqaUBKTNV-1">
          <mxGeometry y="20" relative="1" as="geometry">
            <mxPoint as="offset" />
            <mxPoint x="492.5" y="282" as="sourcePoint" />
            <mxPoint x="493" y="220" as="targetPoint" />
          </mxGeometry>
        </mxCell>
        <mxCell id="9KyVt1tDY5ZcNBMKhhcq-23" value="Selesai" style="strokeWidth=1;html=1;shape=mxgraph.flowchart.terminator;whiteSpace=wrap;strokeColor=default;fillColor=default;" vertex="1" parent="WIyWlLk6GJQsqaUBKTNV-1">
          <mxGeometry x="428" y="182" width="130" height="38" as="geometry" />
        </mxCell>
        <mxCell id="9KyVt1tDY5ZcNBMKhhcq-25" value="Yes" style="rounded=0;html=1;jettySize=auto;orthogonalLoop=1;fontSize=11;endArrow=block;endFill=0;endSize=8;strokeWidth=1;shadow=0;labelBackgroundColor=none;edgeStyle=orthogonalEdgeStyle;exitX=1;exitY=0.5;exitDx=0;exitDy=0;exitPerimeter=0;" edge="1" parent="WIyWlLk6GJQsqaUBKTNV-1" source="9KyVt1tDY5ZcNBMKhhcq-19" target="9KyVt1tDY5ZcNBMKhhcq-26">
          <mxGeometry x="-0.3389" y="10" relative="1" as="geometry">
            <mxPoint as="offset" />
            <mxPoint x="570" y="332" as="sourcePoint" />
            <mxPoint x="600" y="320" as="targetPoint" />
          </mxGeometry>
        </mxCell>
        <mxCell id="9KyVt1tDY5ZcNBMKhhcq-28" value="" style="edgeStyle=orthogonalEdgeStyle;rounded=0;orthogonalLoop=1;jettySize=auto;html=1;entryX=0.978;entryY=0.475;entryDx=0;entryDy=0;entryPerimeter=0;exitX=0.602;exitY=0.019;exitDx=0;exitDy=0;exitPerimeter=0;" edge="1" parent="WIyWlLk6GJQsqaUBKTNV-1" source="9KyVt1tDY5ZcNBMKhhcq-26">
          <mxGeometry relative="1" as="geometry">
            <mxPoint x="690" y="280" as="sourcePoint" />
            <mxPoint x="558.1400000000001" y="200.05" as="targetPoint" />
            <Array as="points">
              <mxPoint x="680" y="280" />
              <mxPoint x="680" y="200" />
            </Array>
          </mxGeometry>
        </mxCell>
        <mxCell id="9KyVt1tDY5ZcNBMKhhcq-26" value="Kurangi Poin" style="shape=parallelogram;html=1;strokeWidth=1;perimeter=parallelogramPerimeter;whiteSpace=wrap;rounded=1;arcSize=12;size=0.23;" vertex="1" parent="WIyWlLk6GJQsqaUBKTNV-1">
          <mxGeometry x="590" y="300" width="150" height="40" as="geometry" />
        </mxCell>
      </root>
    </mxGraphModel>
  </diagram>
</mxfile>
